<?xml version="1.0" encoding="UTF-8" standalone="no"?>
<!-- Created with Inkscape (http://www.inkscape.org/) -->
<svg xmlns:inkscape="http://www.inkscape.org/namespaces/inkscape" xmlns:rdf="http://www.w3.org/1999/02/22-rdf-syntax-ns#" xmlns="http://www.w3.org/2000/svg" xmlns:xlink="http://www.w3.org/1999/xlink" xmlns:ns1="http://sozi.baierouge.fr" xmlns:cc="http://creativecommons.org/ns#" xmlns:sodipodi="http://sodipodi.sourceforge.net/DTD/sodipodi-0.dtd" xmlns:dc="http://purl.org/dc/elements/1.1/" id="svg2" xml:space="preserve" viewBox="0 0 64.55 32.01" version="1.1" inkscape:version="0.91 r13725">
  <defs id="defs6">
    <linearGradient id="linearGradient24" y2="23.582" gradientUnits="userSpaceOnUse" x2="80.099" gradientTransform="matrix(.7972 -.06728 -.09296 -.79504 -8.0001 40.64)" y1="23.582" x1="68.508">
      <stop id="stop26" style="stop-color:#12361e" offset="0"/>
      <stop id="stop28" style="stop-color:#1c4a2b" offset="1"/>
    </linearGradient>
    <linearGradient id="linearGradient46" y2="-15.179" gradientUnits="userSpaceOnUse" x2="90.528" gradientTransform="matrix(.66912 -.43856 -.43856 -.66912 -7.9999 40.64)" y1="-15.179" x1="76.847">
      <stop id="stop48" style="stop-color:#692010" offset="0"/>
      <stop id="stop50" style="stop-color:#7d210e" offset="1"/>
    </linearGradient>
    <linearGradient id="linearGradient64" y2="-5.0786" gradientUnits="userSpaceOnUse" x2="90.528" gradientTransform="matrix(.66912 -.43856 -.43856 -.66912 -7.9999 40.64)" y1="-5.0786" x1="76.847">
      <stop id="stop66" style="stop-color:#12361e" offset="0"/>
      <stop id="stop68" style="stop-color:#1c4a2b" offset="1"/>
    </linearGradient>
    <linearGradient id="linearGradient88" y2="23.775" gradientUnits="userSpaceOnUse" x2="67.802" gradientTransform="matrix(.79576 -.08256 -.10712 -.7932 -8.0001 40.64)" y1="23.775" x1="17.182">
      <stop id="stop90" style="stop-color:#4a9463" offset="0"/>
      <stop id="stop92" style="stop-color:#2e6942" offset="1"/>
    </linearGradient>
    <linearGradient id="linearGradient106" y2="37.457" gradientUnits="userSpaceOnUse" x2="62.696" gradientTransform="matrix(.79448 .09368 .06872 -.79744 -7.9997 40.64)" y1="37.457" x1="6.9878">
      <stop id="stop108" style="stop-color:#3b7a51" offset="0"/>
      <stop id="stop110" style="stop-color:#1d4a2c" offset="1"/>
    </linearGradient>
    <linearGradient id="linearGradient126" y2="26.789" gradientUnits="userSpaceOnUse" x2="77.38" gradientTransform="matrix(.75088 -.276 -.29368 -.7444 -8.0002 40.64)" y1="26.789" x1="24.482">
      <stop id="stop128" style="stop-color:#3b7a51" offset="0"/>
      <stop id="stop130" style="stop-color:#1d4a2c" offset="1"/>
    </linearGradient>
  </defs>
  <g id="g10" transform="matrix(1.25 0 0 -1.25 0 32.01)">
    <g id="g12">
      <g id="g14">
        <g id="g16">
          <g id="g22">
            <path id="path30" style="fill-rule:evenodd;fill:url(#linearGradient24)" d="m46 20.041 1.641 1 1.718 1 1.161-1.121 0.8-3.039-7.039-5.761-0.121 3.519 1.84 4.402z" inkscape:connector-curvature="0"/>
          </g>
        </g>
      </g>
      <path id="path32" style="fill-rule:evenodd;fill:#6ac488" d="m5.441 21.401-0.121-0.082c1.282 0.375 2.106 0.601 2.481 0.679 0.933 0.243 1.504 0.387 1.719 0.442 3.093-0.027 6.015-0.055 8.761-0.078l3.918-0.043h0.563l26.636-0.199-0.039-0.079-1.718-1 1.597 1.04c-2.023-0.989-3.117-1.536-3.277-1.641-0.16 0-2.773 0.039-7.84 0.121-0.16 0.023-0.281 0.039-0.359 0.039-4.856 0.106-8.176 0.133-9.961 0.078l-20.321 0.242h-3.199l-0.043 0.039 1.203 0.442z" inkscape:connector-curvature="0"/>
      <path id="path34" style="fill-rule:evenodd;fill:#9df2c8" d="m5.219 20.92c-0.207-0.007-0.348-0.035-0.418-0.082-0.133 0-0.215-0.023-0.242-0.078-0.184-0.054-0.332-0.105-0.438-0.16-0.215-0.082-0.695-0.492-1.441-1.238-0.055-0.028-0.106-0.055-0.16-0.082l1.242 1.281 0.359 0.398 0.16-0.039h0.938zm17.543 1.399h-0.563l-3.918 0.043c-2.75 0.023-5.668 0.051-8.761 0.078-0.215-0.055-0.786-0.199-1.719-0.442-0.375-0.078-1.199-0.304-2.481-0.679l0.121 0.082 3.84 1.16 13.481-0.242zm23.238-2.278 0.039 0.118-38.598 0.722c-0.027 0.024-0.011 0.035 0.039 0.039l20.321-0.242c1.785 0.055 5.105 0.028 9.961-0.078 0.078 0 0.199-0.016 0.359-0.039 5.067-0.082 7.68-0.121 7.84-0.121 0.16 0.105 1.25 0.652 3.277 1.641l-1.597-1.04-1.641-1z" inkscape:connector-curvature="0"/>
      <g id="g36">
        <g id="g38">
          <g id="g44">
            <path id="path52" style="fill-rule:evenodd;fill:url(#linearGradient46)" d="m51.359 17.721v-0.043l-2-1.719 1.961 1.762v0.16l0.039-0.16z" inkscape:connector-curvature="0"/>
          </g>
        </g>
      </g>
      <g id="g54">
        <g id="g56">
          <g id="g62">
            <path id="path70" style="fill-rule:evenodd;fill:url(#linearGradient64)" d="m44.762 0.041-0.16 3.68-0.082-0.961c-0.028-0.082-0.055-0.187-0.082-0.32l-0.2 8.601-0.039 0.438 0.082 0.082 7.117 5.879c0-0.348 0.016-0.707 0.043-1.078l0.2-9.883-6.879-6.438z" inkscape:connector-curvature="0"/>
          </g>
        </g>
      </g>
      <path id="path72" style="fill-rule:evenodd;fill:#285740" d="m44.238 11.678 0.043 0.043 5.078 4.238 2 1.719v0.043l0.082-0.203-0.043-0.078-7.117-5.879-0.082-0.082 0.039 0.199z" inkscape:connector-curvature="0"/>
      <path id="path74" style="fill-rule:evenodd;fill:#0a1f15" d="m0.16 12.76h0.121l-0.043-0.039h-0.078v0.039zm44.121-1.039v0.399l7.039 5.761v-0.16l-1.961-1.762-5.078-4.238z" inkscape:connector-curvature="0"/>
      <path id="path76" style="fill-rule:evenodd;fill:#4a9671" d="m44.16 15.639-15.16 0.281l-5.359 0.2h18.757c0.508-0.028 0.774-0.039 0.801-0.039 0.348 0 0.707 0.292 1.082 0.878l1.758 3.204-0.039-0.122-1.84-4.402z" inkscape:connector-curvature="0"/>
      <g id="g78">
        <g id="g80">
          <g id="g86">
            <path id="path94" style="fill-rule:evenodd;fill:url(#linearGradient88)" d="m0.922 16.401 5.238 0.039-4.48 0.078-1.68 0.082 0.121 0.117 0.481 0.645-0.082-0.121-0.079-0.16c-0.054-0.028-0.109-0.083-0.16-0.161 1.039 0.879 1.824 1.52 2.36 1.918 0.851 0.934 1.531 1.508 2.039 1.723 0.105 0.105 0.226 0.16 0.359 0.16 0.16 0.133 0.961 0.184 2.402 0.16l38.598-0.722-1.758-3.2c-0.375-0.586-0.734-0.878-1.082-0.878-0.027 0-0.293 0.011-0.801 0.039h-18.757l5.359-0.2-28.641 0.481v0.039l0.563-0.039z" inkscape:connector-curvature="0"/>
          </g>
        </g>
      </g>
      <g id="g96">
        <g id="g98">
          <g id="g104">
            <path id="path112" style="fill-rule:evenodd;fill:url(#linearGradient106)" d="m0.32 12.92 0.039 0.243c-0.027 0.156-0.039 0.343-0.039 0.558-0.027 0.531-0.027 1.078 0 1.641l0.039 1.039 28.641-0.481 15.16-0.281 0.117-3.519v-0.399l-0.039-0.043-0.078 0.203v0.039l-43.84 1z" inkscape:connector-curvature="0"/>
          </g>
        </g>
      </g>
      <path id="path114" style="fill-rule:evenodd;fill:#103323" d="m23.961 11.998-23.441 0.762h-0.36c-0.027 0.028-0.039 0.051-0.039 0.078v0.082h0.199l43.84-1v-0.039l-0.199-0.121c-0.215 0-1.066-0.015-2.563-0.043l-17.437 0.321v-0.04z" inkscape:connector-curvature="0"/>
      <g id="g116">
        <g id="g118">
          <g id="g124">
            <path id="path132" style="fill-rule:evenodd;fill:url(#linearGradient126)" d="m30.16 0.561c-6.426 0.133-15.746 0.305-27.961 0.52-0.426 0.023-0.773 0.066-1.039 0.117-0.187 0.054-0.32 0.121-0.398 0.203h-0.043l-0.117 0.078c-0.11 0.055-0.176 0.133-0.204 0.238l-0.199 10.242v0.36c0 0.054-0.011 0.094-0.039 0.121l1.481-0.039h0.121c0.023-0.028 0.093-0.055 0.199-0.082h0.117c0-0.028 0.067-0.055 0.203-0.082h0.199c0.133-0.024 0.305-0.024 0.52 0 0.508-0.078 2.641-0.145 6.398-0.199 5.067-0.079 8.707-0.161 10.922-0.239l5.078-0.039c7.79-0.16 13.094-0.269 15.922-0.32 1.52 0.023 2.348 0.023 2.481 0l0.238 0.16-20.078 0.398v0.04l17.437-0.321c1.497 0.028 2.348 0.043 2.563 0.043l0.199 0.117 0.078-0.199-0.039-0.199 0.039-0.438-0.039 0.36 0.082-3.602c0-2.879-0.109-4.64-0.32-5.281-0.426-0.559-0.746-0.973-0.961-1.238-0.133-0.082-0.238-0.149-0.32-0.199-0.852-0.348-2.825-0.481-5.918-0.403-1.176-0.051-3.375-0.09-6.602-0.117z" inkscape:connector-curvature="0"/>
          </g>
        </g>
      </g>
      <path id="path134" style="fill-rule:evenodd;fill:#2e5e45" d="m44.238 11.041 0.203-8.601c-0.132-0.668-0.441-1.215-0.921-1.641-0.454-0.265-1-0.414-1.641-0.437-0.399 0-4.305 0.066-11.719 0.199 3.227 0.023 5.426 0.066 6.602 0.117 3.09-0.078 5.066 0.055 5.918 0.403 0.082 0.05 0.187 0.117 0.32 0.199 0.211 0.265 0.531 0.679 0.961 1.238 0.211 0.641 0.316 2.402 0.316 5.281l-0.078 3.602 0.039-0.36z" inkscape:connector-curvature="0"/>
      <path id="path136" style="fill-rule:evenodd;fill:#408c67" d="m3 12.241c-0.027 0.027-0.012 0.039 0.039 0.039-0.051 0.133-0.266 0.199-0.641 0.199l-0.16-0.117-0.16-0.043h-0.117c-0.106 0.027-0.176 0.054-0.199 0.082h-0.121l-0.121 0.199-1 0.16 23.441-0.758 20.078-0.402-0.238-0.16c-0.133 0.027-0.961 0.027-2.481 0-2.828 0.055-8.132 0.16-15.922 0.32l-5.078 0.039c-2.215 0.082-5.851 0.16-10.922 0.242-3.757 0.051-5.89 0.118-6.398 0.2z" inkscape:connector-curvature="0"/>
      <path id="path138" style="fill-rule:evenodd;fill:#17452f" d="m0.398 1.721c0.028-0.109 0.094-0.187 0.204-0.242l0.117-0.078h0.043c0.078-0.082 0.211-0.149 0.398-0.199 0.266-0.055 0.613-0.094 1.039-0.121 12.215-0.215 21.535-0.387 27.961-0.52 7.414-0.133 11.32-0.199 11.719-0.199 0.641 0.023 1.187 0.172 1.641 0.437 0.48 0.43 0.785 0.977 0.918 1.641 0.027 0.133 0.054 0.242 0.082 0.32l0.082 0.961 0.16-3.68c-0.082 0.024-0.16 0.04-0.242 0.04-0.348 0-0.918-0.028-1.719-0.083h-5.321l-36.48 0.762c-0.402 0.078-0.602 0.266-0.602 0.559v0.402z" inkscape:connector-curvature="0"/>
      <path id="path140" style="fill-rule:evenodd;fill:#66bd92" d="m7.441 20.881c-1.441 0.028-2.242-0.027-2.402-0.16-0.133 0-0.25-0.055-0.359-0.16-0.508-0.215-1.188-0.789-2.039-1.723-0.536-0.398-1.321-1.039-2.36-1.918 0.051 0.082 0.106 0.133 0.16 0.161l0.079 0.16c0.453 0.531 0.878 0.961 1.281 1.277-0.055 0.027-0.039 0.043 0.039 0.043l0.121 0.156 0.16 0.121c0 0.028 0.012 0.055 0.039 0.082 0.106 0.184 0.188 0.305 0.238 0.36l1.364 1.281-1.242-1.281c0.054 0.027 0.105 0.051 0.16 0.082 0.746 0.746 1.226 1.156 1.441 1.238 0.106 0.051 0.254 0.106 0.438 0.16 0.027 0.055 0.109 0.078 0.242 0.078 0.07 0.047 0.211 0.075 0.418 0.082h2.261c-0.05-0.004-0.066-0.015-0.039-0.039z" inkscape:connector-curvature="0"/>
      <path id="path142" style="fill-rule:evenodd;fill:#88d9af" d="m0.281 12.76h0.239l1-0.16 0.121-0.199-1.481 0.039h-0.039c-0.027 0.055-0.027 0.094 0 0.121v0.039c0 0.027 0.012 0.066 0.039 0.117h0.078l0.043 0.043zm0.641 3.641-0.563 0.039h-0.039c-0.105-0.133-0.199-0.387-0.281-0.762l-0.039 0.922 1.68-0.082c-0.321-0.023-0.575-0.066-0.758-0.117zm1.156-4.082 0.16 0.043 0.16 0.117c0.375 0 0.59-0.066 0.641-0.199-0.051 0-0.066-0.012-0.039-0.039-0.215-0.028-0.387-0.028-0.52 0h-0.199c-0.136 0.027-0.203 0.05-0.203 0.078z" inkscape:connector-curvature="0"/>
      <path id="path144" style="fill-rule:evenodd;fill:#44966d" d="m0.359 16.44v-0.039l-0.039-1.039c-0.027-0.563-0.027-1.11 0-1.645 0-0.211 0.012-0.398 0.039-0.558l-0.039-0.239h-0.199v-0.082l-0.043 0.203-0.039 2.637c0.082 0.375 0.176 0.629 0.281 0.762h0.039zm1.321 0.078 4.48-0.078-5.238-0.039c0.183 0.051 0.437 0.094 0.758 0.117z" inkscape:connector-curvature="0"/>
      <path id="path146" style="fill-rule:evenodd;fill:#faddd8" d="m20.039 14.081c-0.371-0.028-0.641-0.094-0.801-0.2-0.133-0.054-0.265-0.16-0.398-0.32-0.133-0.215-0.238-0.332-0.32-0.359 0.082 0.347 0.187 0.625 0.32 0.839 0.16 0.133 0.441 0.227 0.84 0.278l0.242-0.078c0.078-0.028 0.117-0.082 0.117-0.16zm1.16-0.762c-0.027 0.054-0.039 0.109-0.039 0.16l0.199-0.078c0.055-0.028 0.082-0.11 0.082-0.242-0.054 0.054-0.136 0.109-0.242 0.16zm-3-3.039h-0.039v0.039c-0.027 0.269 0 0.519 0.078 0.762 0.082 0.16 0.137 0.32 0.16 0.48 0.028 0.078 0.067 0.16 0.122 0.238v0.321h0.039c0.054 0.109 0.093 0.187 0.121 0.242v0.078c0 0.055 0.027 0.109 0.082 0.16 0.078 0.215 0.183 0.375 0.316 0.481l0.32 0.121 0.243 0.16c0.187-0.055 0.265-0.121 0.238-0.199-0.371-0.137-0.641-0.321-0.801-0.563-0.051-0.051-0.078-0.121-0.078-0.199v-0.039c-0.027-0.055-0.066-0.133-0.121-0.242 0-0.106-0.012-0.215-0.039-0.321v-0.32c-0.028-0.051-0.039-0.09-0.039-0.117v-0.199c0.105 0 0.105-0.082 0-0.243v-0.117c0.027-0.297 0-0.496-0.082-0.601-0.024 0-0.067-0.028-0.117-0.082-0.11-0.024-0.215 0-0.321 0.082-0.027 0.023-0.054 0.05-0.082 0.078zm0.961-1.239c0.028 0.024 0.067 0.051 0.121 0.079 0.051 0.054 0.106 0.093 0.16 0.121l0.039 0.078c0.028 0.054 0.051 0.094 0.079 0.121h0.043l0.16-0.121h0.16l-0.121-0.117c-0.082 0.023-0.188-0.028-0.321-0.161-0.105-0.082-0.187-0.187-0.242-0.32-0.05-0.055-0.093-0.109-0.117-0.16-0.055-0.109-0.094-0.281-0.121-0.52l-0.039-0.082-0.039 0.204c-0.027 0.238 0 0.425 0.078 0.558v0.039c-0.027 0.028-0.027 0.067 0 0.117 0 0.028 0.055 0.082 0.16 0.164zm0.84 1.079c-0.105-0.028-0.188-0.039-0.238-0.039-0.59-0.028-0.867-0.149-0.84-0.36v-0.441c-0.027-0.106-0.043-0.227-0.043-0.36-0.024-0.027-0.039-0.082-0.039-0.16 0-0.082-0.012-0.16-0.039-0.242-0.082 0.055-0.121 0.203-0.121 0.441v0.282c0 0.32 0.054 0.586 0.16 0.8 0.027 0.028 0.066 0.051 0.121 0.079 0.133 0.132 0.305 0.214 0.519 0.242h0.559c0.16-0.028 0.242-0.094 0.242-0.199h-0.242l-0.039-0.043zm0.602-2.719h0.117l0.043-0.281c-0.242 0.027-0.297 0.121-0.16 0.281zm-1.922 0.078 0.242 0.16c0-0.453-0.055-0.641-0.16-0.558-0.028 0.027-0.055 0.16-0.082 0.398z" inkscape:connector-curvature="0"/>
      <path id="path148" style="fill-rule:evenodd;fill:#b39e9a" d="m20.039 14.081c0 0.082-0.039 0.132-0.117 0.16l-0.242 0.078c-0.399-0.051-0.68-0.145-0.84-0.278-0.133-0.214-0.238-0.496-0.32-0.839 0.082 0.023 0.187 0.144 0.32 0.359 0.133 0.156 0.265 0.266 0.398 0.316 0.16 0.11 0.43 0.176 0.801 0.204zm0.563-6.68c-0.137-0.16-0.082-0.254 0.16-0.281l-0.043 0.281h-0.117zm-0.602 2.719l0.039 0.043h0.242c0 0.105-0.082 0.171-0.242 0.199h-0.559c-0.214-0.028-0.386-0.11-0.519-0.242-0.055-0.028-0.094-0.051-0.121-0.079-0.106-0.214-0.16-0.48-0.16-0.8v-0.282c0-0.242 0.039-0.386 0.121-0.441 0.027 0.082 0.039 0.16 0.039 0.242 0 0.078 0.015 0.133 0.039 0.16 0 0.133 0.016 0.254 0.043 0.36v0.437c-0.027 0.215 0.25 0.336 0.84 0.364 0.05 0 0.133 0.011 0.238 0.039zm-0.84-1.079c-0.105-0.082-0.16-0.136-0.16-0.16-0.027-0.054-0.027-0.093 0-0.121v-0.039c-0.078-0.133-0.105-0.32-0.078-0.558l0.039-0.204 0.039 0.082c0.027 0.239 0.066 0.415 0.121 0.52 0.024 0.051 0.067 0.105 0.117 0.16 0.055 0.133 0.137 0.238 0.242 0.32 0.133 0.133 0.239 0.184 0.321 0.161l0.121 0.117h-0.121c0.078 0.027 0.144 0.043 0.199 0.043 0.078-0.055 0.133-0.094 0.16-0.121 0.078-0.11 0.133-0.243 0.16-0.403-0.027 0.137-0.082 0.243-0.16 0.321l-0.039 0.082c-0.055 0-0.094-0.016-0.121-0.039-0.078-0.055-0.145-0.11-0.199-0.161-0.106-0.082-0.176-0.203-0.199-0.363-0.082-0.051-0.122-0.16-0.122-0.316v-0.082c-0.027-0.133-0.066-0.239-0.121-0.321-0.027-0.027-0.121-0.078-0.281-0.16l-0.078 0.082 0.16-0.242c0.028-0.105 0.078-0.16 0.16-0.16v-0.117c0-0.242-0.015-0.414-0.039-0.52-0.109-0.215-0.336-0.265-0.679-0.16-0.055 0.106-0.094 0.266-0.122 0.481-0.082 0.425-0.16 1-0.242 1.718-0.023 0.481-0.039 0.84-0.039 1.082v0.321l0.082-0.082c0.106-0.082 0.211-0.106 0.321-0.082 0.05 0.054 0.093 0.082 0.117 0.082 0.082 0.105 0.109 0.308 0.082 0.601v0.117c0.105 0.161 0.105 0.243 0 0.243v0.199c0 0.027 0.011 0.066 0.039 0.121v0.32c0.027 0.106 0.039 0.211 0.039 0.317 0.055 0.109 0.094 0.187 0.121 0.242v0.039c0 0.078 0.027 0.144 0.078 0.199 0.16 0.238 0.43 0.426 0.801 0.559 0.027 0.082-0.051 0.148-0.238 0.203l-0.243-0.16-0.32-0.121c-0.133-0.106-0.238-0.266-0.316-0.481-0.215 0-0.348 0.027-0.403 0.078-0.054 0-0.132 0.137-0.238 0.403l-0.043-0.161c0 0.133 0.094 0.375 0.281 0.719 0.188 0.375 0.348 0.613 0.481 0.723 0.398 0.211 0.922 0.332 1.558 0.355 0.11 0.028 0.227 0.043 0.364 0.043l-0.282-0.082v-0.078c-0.347-0.055-0.613-0.133-0.8-0.238 1.465 0.105 2.332-0.094 2.601-0.602 0.051-0.109 0.078-0.265 0.078-0.48-0.027-0.293-0.093-0.469-0.199-0.52-0.105-0.109-0.265-0.133-0.48-0.082v0.082c-0.028 0.16-0.106 0.293-0.239 0.399 0 0.132-0.027 0.214-0.082 0.242l-0.199 0.078c0-0.051 0.012-0.106 0.039-0.16-0.027 0.027-0.054 0.043-0.078 0.043-0.32 0.133-0.668 0.156-1.043 0.078h0.043c0.051-0.027 0.117-0.094 0.199-0.199h0.039c0.055-0.11 0.094-0.227 0.121-0.36 0.028-0.082 0.04-0.16 0.04-0.242 0-0.078 0.027-0.16 0.082-0.238v-0.082c0.023-0.051 0.05-0.117 0.078-0.199-0.028-0.028-0.028-0.055 0-0.082 0.027-0.051 0.054-0.09 0.082-0.118 0-0.027 0.011-0.066 0.039-0.121v-0.082c0.027-0.051 0.039-0.09 0.039-0.117 0.055-0.16 0.082-0.293 0.082-0.398l0.156-3.121c0-0.293 0.043-0.719 0.121-1.282-0.398-0.133-0.64-0.051-0.719 0.242v0.84c0 0.078 0.012 0.16 0.04 0.239-0.028 0.187-0.012 0.359 0.039 0.519-0.028 0-0.028 0.027 0 0.082-0.028 0.133-0.067 0.254-0.118 0.36 0 0.531-0.16 0.8-0.48 0.8h-0.199c-0.297-0.027-0.496-0.121-0.602-0.281-0.027-0.055-0.027-0.199 0-0.441v-0.118zm1.121-0.8v-0.082c-0.109-0.348-0.269-0.575-0.48-0.68 0.187 0.105 0.332 0.332 0.437 0.68 0.028 0.027 0.039 0.054 0.043 0.082zm-1.883 3.32c-0.023-0.16-0.078-0.32-0.16-0.48-0.078-0.243-0.105-0.497-0.078-0.762-0.055 0.215-0.082 0.469-0.082 0.762l0.082 0.757h0.039c-0.078-0.105-0.027-0.199 0.16-0.277h0.039zm3.321-0.242c0.215-0.293 0.308-0.586 0.281-0.879 0-0.133-0.012-0.266-0.039-0.399-0.055-0.136-0.121-0.253-0.199-0.363-0.028-0.105-0.067-0.199-0.121-0.277 0.054 0.238 0.078 0.453 0.078 0.64-0.024 0.454-0.024 0.879 0 1.278zm-3.039-3.84c0.027-0.238 0.054-0.371 0.082-0.398 0.105-0.083 0.16 0.105 0.16 0.558l-0.242-0.16z" inkscape:connector-curvature="0"/>
      <path id="path150" style="fill-rule:evenodd;fill:#4a4140" d="m21.199 13.319c0.106-0.051 0.188-0.106 0.242-0.156 0.133-0.11 0.211-0.243 0.239-0.403v-0.082c0-0.105 0.015-0.199 0.039-0.277v-0.602l0.121-0.039c0.105 0 0.226 0.012 0.359 0.039 0.106 0 0.215-0.015 0.321-0.039h0.558c0.027 0.024 0.055 0.039 0.082 0.039v-0.64l-0.039-0.118c-0.055-0.402-0.109-0.761-0.16-1.082-0.027-0.132-0.066-0.242-0.121-0.32-0.106-0.453-0.414-0.812-0.918-1.078-0.137-0.055-0.254-0.094-0.363-0.121 0.027-0.133 0.027-0.254 0-0.359 0-0.133 0.015-0.442 0.043-0.918 0-0.43-0.055-0.696-0.161-0.801l-0.519-0.043c-0.43-0.078-0.961-0.067-1.602 0.043l-0.082 0.039h-0.078c0.078 0.027 0.145 0.051 0.199 0.078 0.188 0.082 0.309 0.227 0.36 0.441 0.027 0.082 0 0.266-0.078 0.559-0.082-0.051-0.149-0.066-0.2-0.039-0.054 0-0.093 0.016-0.121 0.039-0.082 0-0.132 0.055-0.16 0.16 0.078-0.023 0.145-0.039 0.199-0.039 0.188 0.027 0.336 0.094 0.442 0.199 0.054 0.028 0.105 0.149 0.16 0.364v0.437c0.051 0.133 0.094 0.254 0.117 0.359 0.027 0.082 0.055 0.149 0.082 0.204 0.078-0.082 0.133-0.188 0.16-0.321v-0.121c0-0.027-0.015-0.066-0.039-0.121v-0.359c-0.004-0.028-0.015-0.055-0.043-0.078-0.105-0.348-0.25-0.575-0.437-0.684 0.211 0.109 0.371 0.336 0.48 0.684l0.039-1.485c0.106 0 0.282-0.023 0.52-0.078 0.238 0 0.398 0.039 0.48 0.117 0.028 0.082 0.028 0.27 0 0.563-0.027 0.238-0.039 0.398-0.039 0.48v0.559c0.024 0.215 0.039 0.414 0.039 0.601 0 0.028-0.015 0.051-0.039 0.078 0 0.403 0.024 0.735 0.078 1v0.083c-0.027 0.453-0.066 0.945-0.121 1.48v0.801h-0.039c-0.054 0.133-0.094 0.25-0.121 0.355-0.023 0.055-0.066 0.082-0.117 0.082-0.027 0.106-0.082 0.199-0.16 0.282-0.082 0.082-0.149 0.132-0.199 0.16-0.161 0.105-0.321 0.172-0.481 0.199h-0.043c0.375 0.078 0.723 0.055 1.043-0.078 0.024 0 0.051-0.016 0.078-0.043zm-1.64-3.879c-0.028-0.027-0.051-0.067-0.079-0.121l-0.039-0.078v0.121c0.024 0.023 0.067 0.051 0.118 0.078zm0.601-0.199c-0.027 0.027-0.082 0.066-0.16 0.121-0.055 0-0.121-0.016-0.199-0.043h-0.039l-0.16 0.121h0.199c0.054 0.027 0.105 0.012 0.16-0.039 0.105 0 0.172-0.055 0.199-0.16zm1.719 3.121c0.32 0.023 0.535 0.066 0.641 0.117 0.132 0.801 0.105 1.32-0.079 1.559-0.136 0.109-0.347 0.214-0.64 0.32-0.293 0.109-0.481 0.215-0.563 0.32 0.242 0 0.457-0.051 0.641-0.16 0.613-0.105 0.976-0.305 1.082-0.602 0.133-0.316 0.211-0.851 0.238-1.597h-0.32l-1 0.043zm-0.16-1.043c-0.024-0.399-0.024-0.824 0-1.278 0-0.187-0.024-0.402-0.078-0.64-0.028-0.082-0.039-0.149-0.039-0.199 0.05 0.023 0.093 0.039 0.117 0.039 0.242 0.293 0.426 0.558 0.562 0.8 0.024 0.106 0.039 0.227 0.039 0.36 0.028 0.16-0.015 0.359-0.121 0.597-0.078 0.243-0.133 0.415-0.16 0.52l0.281 0.121c-0.082 0.055-0.265 0.078-0.558 0.078h-0.043v-0.398z" inkscape:connector-curvature="0"/>
      <path id="path152" style="fill-rule:evenodd;fill:#706361" d="m20.281 8.159v0.441c0.024 0.055 0.039 0.094 0.039 0.121v0.117c-0.027 0.16-0.082 0.293-0.16 0.403-0.027 0.105-0.094 0.16-0.199 0.16-0.055 0.051-0.106 0.066-0.16 0.039h-0.242c-0.051-0.027-0.094-0.055-0.118-0.078v-0.121c-0.054-0.028-0.109-0.067-0.16-0.121-0.054-0.028-0.093-0.051-0.121-0.079v0.118c-0.027 0.242-0.027 0.386 0 0.441 0.106 0.16 0.305 0.254 0.602 0.281h0.199c0.32 0 0.48-0.269 0.48-0.8 0.051-0.106 0.094-0.227 0.118-0.36-0.028-0.055-0.028-0.082 0-0.082-0.051-0.16-0.067-0.332-0.039-0.519-0.028-0.079-0.04-0.161-0.04-0.239v-0.84c0.079-0.293 0.321-0.375 0.719-0.242-0.078 0.563-0.121 0.989-0.121 1.282l-0.156 3.121c0 0.105-0.027 0.238-0.082 0.398 0 0.027-0.012 0.066-0.039 0.117v0.082c-0.028 0.055-0.039 0.094-0.039 0.121-0.028 0.028-0.055 0.067-0.082 0.118-0.028 0.027-0.028 0.054 0 0.082-0.028 0.082-0.055 0.148-0.078 0.199v0.082c-0.055 0.078-0.082 0.16-0.082 0.238 0 0.082-0.012 0.16-0.04 0.242-0.027 0.133-0.066 0.25-0.121 0.36h-0.039c-0.082 0.105-0.148 0.172-0.199 0.199 0.16-0.027 0.32-0.094 0.481-0.199 0.05-0.028 0.117-0.082 0.199-0.16 0.078-0.083 0.133-0.176 0.16-0.282 0.051 0 0.094-0.027 0.117-0.082 0.027-0.105 0.067-0.222 0.121-0.355h0.039v-0.801c0.055-0.535 0.094-1.027 0.121-1.48v-0.083c-0.054-0.265-0.078-0.597-0.078-1 0.024-0.027 0.039-0.05 0.039-0.082 0-0.183-0.015-0.382-0.039-0.597v-0.559c0-0.082 0.012-0.242 0.039-0.48 0.028-0.293 0.028-0.481 0-0.563-0.082-0.078-0.242-0.117-0.48-0.117-0.238 0.051-0.414 0.078-0.52 0.078l-0.039 1.481zm-1.121-0.52-0.16 0.242 0.078-0.082c0.16 0.082 0.254 0.133 0.281 0.16 0.055 0.082 0.094 0.188 0.121 0.321v0.082c0 0.156 0.04 0.265 0.122 0.316 0.023 0.16 0.093 0.281 0.199 0.36 0.054 0.054 0.121 0.109 0.199 0.16 0.027 0.027 0.066 0.043 0.121 0.043l0.039-0.082c-0.027-0.055-0.055-0.121-0.082-0.2-0.023-0.109-0.066-0.226-0.117-0.359v-0.441c-0.055-0.215-0.106-0.332-0.16-0.36-0.106-0.105-0.254-0.172-0.442-0.199-0.054 0-0.121 0.012-0.199 0.039zm0-1.238h-0.039c-0.109 0.027-0.187 0.066-0.242 0.117-0.024 0-0.078 0.016-0.16 0.043l-0.078 0.078c-0.028 0-0.039 0.016-0.039 0.039 0.343-0.105 0.57-0.051 0.679 0.16 0.024 0.11 0.039 0.282 0.039 0.524v0.117c0.028-0.027 0.067-0.039 0.121-0.039 0.051-0.027 0.118-0.016 0.2 0.039 0.078-0.293 0.105-0.481 0.078-0.559-0.051-0.214-0.172-0.359-0.36-0.441-0.054-0.027-0.121-0.051-0.199-0.078zm1.602 8.359c0.16 0 0.316-0.027 0.476-0.082 0.082-0.105 0.27-0.211 0.563-0.316 0.293-0.11 0.504-0.215 0.64-0.321 0.184-0.242 0.211-0.761 0.079-1.562-0.106-0.051-0.321-0.094-0.641-0.117l-0.16 0.039c-0.024 0.078-0.039 0.172-0.039 0.281 0.215-0.055 0.375-0.027 0.48 0.078 0.106 0.055 0.172 0.227 0.199 0.52 0 0.215-0.027 0.375-0.078 0.48-0.269 0.508-1.136 0.707-2.601 0.602 0.187 0.105 0.453 0.187 0.8 0.238v0.082l0.282 0.078zm-2-2.16c-0.055-0.055-0.082-0.105-0.082-0.16l-0.602 0.039c-0.023 0.133-0.023 0.281 0 0.441l0.043 0.161c0.106-0.266 0.184-0.403 0.238-0.403 0.055-0.051 0.188-0.078 0.403-0.078zm-0.242-0.801c-0.051-0.082-0.094-0.16-0.122-0.238h-0.039c-0.187 0.078-0.238 0.172-0.16 0.277l0.321-0.039zm3.121-2.398c0.054 0.078 0.093 0.172 0.121 0.277 0.078 0.11 0.144 0.227 0.199 0.363 0.027 0.133 0.039 0.266 0.039 0.399 0.027 0.293-0.066 0.586-0.281 0.879v0.402h0.043c0.293 0 0.476-0.027 0.558-0.082l-0.281-0.121c0.027-0.105 0.082-0.277 0.16-0.516 0.106-0.242 0.149-0.441 0.121-0.601 0-0.133-0.015-0.254-0.039-0.36-0.136-0.242-0.32-0.507-0.562-0.8-0.024 0-0.067-0.012-0.117-0.039 0 0.05 0.011 0.117 0.039 0.199z" inkscape:connector-curvature="0"/>
      <path id="path154" style="fill-rule:evenodd;fill:#173f2a" d="m23.16 11.639c0.051-0.211 0.067-0.508 0.039-0.879 0.055-0.16 0.094-0.48 0.121-0.961 0-0.051-0.015-0.133-0.039-0.238l0.039-0.641c-0.027-0.242-0.175-0.425-0.441-0.558-0.238-0.16-0.574-0.309-1-0.442l0.043-1.839c-0.027-0.133-0.094-0.215-0.203-0.243l-0.36-0.078c-0.504-0.082-1.121-0.066-1.839 0.039-0.133 0.051-0.2 0.094-0.2 0.117v0.446c0.641-0.11 1.172-0.121 1.602-0.043l0.519 0.043c0.106 0.105 0.161 0.371 0.161 0.797-0.028 0.48-0.043 0.789-0.043 0.922 0.027 0.105 0.027 0.226 0 0.359 0.109 0.027 0.226 0.066 0.363 0.121 0.504 0.266 0.812 0.625 0.918 1.078 0.055 0.078 0.094 0.188 0.121 0.32 0.051 0.321 0.105 0.68 0.16 1.079l0.039 0.121v0.48zm-1.922 3.039c-0.16 0.055-0.316 0.082-0.476 0.082-0.137 0-0.254-0.012-0.364-0.039 0.161 0.078 0.364 0.16 0.602 0.238 0.266 0.028 0.586 0 0.961-0.078 0.078-0.027 0.398-0.133 0.961-0.32 0.293-0.133 0.453-0.227 0.476-0.281 0.137-0.16 0.215-0.348 0.243-0.559 0-0.133 0.011-0.359 0.039-0.68 0-0.293-0.039-0.496-0.121-0.601-0.028-0.055-0.067-0.094-0.118-0.121-0.082-0.024-0.187-0.039-0.32-0.039h-0.562l0.32 0.039h0.32c-0.027 0.75-0.105 1.281-0.238 1.601-0.106 0.293-0.469 0.493-1.082 0.598-0.184 0.109-0.399 0.16-0.641 0.16z" inkscape:connector-curvature="0"/>
      <path id="path156" style="fill-rule:evenodd;fill:#b39e9a" d="m29.422 22.061c0.004-0.035 0.012-0.07 0.016-0.102 0.027-0.078 0.042-0.16 0.042-0.238 0-0.027 0.028-0.043 0.079-0.043l0.32 0.16h0.199c0.082-0.023 0.16 0.043 0.242 0.203h0.2c-0.106-0.027-0.161-0.082-0.161-0.16h0.403l0.039-0.082c-0.266-0.133-0.465-0.215-0.602-0.238l-0.16-0.043c0.027-0.051 0.109-0.09 0.242-0.117 0.055-0.028 0.121-0.055 0.199-0.082 0.321 0.054 0.575 0.121 0.762 0.199h0.039l0.039 0.043c0.082 0.023 0.149 0.051 0.203 0.078 0.184 0.16 0.145 0.242-0.121 0.242l-0.562 0.16 0.883-0.16 0.238-0.16c-0.106-0.055-0.184-0.109-0.238-0.16-0.348-0.16-0.696-0.32-1.043-0.48-0.426-0.133-0.797-0.083-1.118 0.16-0.292 0.211-0.558 0.453-0.8 0.718-0.239 0.215-0.465 0.426-0.68 0.641-0.266 0.266-0.52 0.508-0.758 0.719-0.32 0.32-0.644 0.613-0.961 0.883-0.187 0.16-0.402 0.211-0.64 0.16-0.055 0-0.11-0.016-0.161-0.043-0.238 0.027-0.507 0.054-0.8 0.082h-0.02c-0.074 0-0.16 0.015-0.262 0.039-0.371 0.027-0.746 0.039-1.117 0.039h-2.121c-0.426 0-0.801-0.039-1.121-0.117-0.211-0.055-0.414-0.16-0.598-0.321-0.265-0.214-0.48-0.507-0.64-0.882-0.133-0.293-0.281-0.559-0.442-0.797-0.16-0.27-0.343-0.481-0.558-0.641-0.321-0.16-0.641-0.293-0.961-0.402-0.266 0-0.531-0.012-0.801-0.039-0.426-0.078-0.812-0.039-1.16 0.121 0.027 0.051 0.082 0.105 0.16 0.16 0.109 0.078 0.227 0.145 0.359 0.199 0-0.027 0.028-0.066 0.082-0.121 0.426-0.211 0.879-0.238 1.36-0.078 0.055 0.023 0.105 0.066 0.16 0.117 0.32 0.348 0.281 0.481-0.121 0.403l0.043 0.078 0.437-0.078-0.039-0.122c0.215 0.215 0.414 0.469 0.602 0.762 0.133 0.238 0.293 0.481 0.476 0.719 0.188 0.266 0.415 0.535 0.684 0.801 0.184 0.211 0.383 0.398 0.598 0.558h0.242c0.344 0.055 0.691 0.094 1.039 0.121h3.16c0.266 0 0.613-0.015 1.039-0.039 0.453-0.027 0.852-0.043 1.199-0.043l0.801 0.243c0.133-0.083 0.266-0.188 0.399-0.321 0.109-0.082 0.214-0.187 0.32-0.32l-0.762 0.16c0-0.398 0.199-0.719 0.602-0.961 0.16-0.133 0.332-0.266 0.519-0.398 0.239-0.188 0.481-0.387 0.719-0.602 0.188-0.183 0.313-0.379 0.383-0.578zm0.859-0.582h0.239l-0.239-0.078v0.078l-0.082 0.082h0.082v-0.082zm0.758-0.879-0.039-0.082h-0.121l0.16 0.082zm-14.117 1.398-0.043-0.039-0.52-0.199-0.718 0.121 0.398 0.16c0.082-0.109 0.199-0.175 0.359-0.203l0.442 0.121 0.082 0.039zm0.019 0.161c-0.019-0.004-0.039-0.016-0.062-0.039-0.078-0.055-0.133-0.106-0.16-0.161h-0.438c-0.054-0.05-0.082-0.011-0.082 0.122l0.742 0.078zm2.059 0.679c-0.055-0.132-0.121-0.293-0.199-0.476-0.215-0.403-0.469-0.684-0.762-0.844 0.082 0.109 0.16 0.215 0.242 0.32 0.266 0.348 0.504 0.68 0.719 1z" inkscape:connector-curvature="0"/>
      <path id="path158" style="fill-rule:evenodd;fill:#faddd8" d="m17.441 22.081c0.399 0.64 0.813 1.281 1.239 1.917 0.054 0.11 0.121 0.204 0.199 0.282 0.133 0.16 0.266 0.304 0.402 0.441 0.293 0.238 0.574 0.465 0.84 0.68 0.32 0.133 0.691 0.183 1.117 0.16 0.321 0 0.641 0.012 0.961 0.039h1.84c0.32 0.027 0.668-0.016 1.039-0.121 0.32 0.055 0.684 0.039 1.082-0.039 0.348-0.055 0.707-0.172 1.078-0.359l-0.797-0.243-0.441 0.043c0.078 0.028 0.16 0.067 0.238 0.117 0.11 0.055 0.203 0.122 0.282 0.204-0.211 0.132-0.532 0.183-0.958 0.16h-1.96c-0.426 0.023-0.84 0.039-1.243 0.039-0.347-0.028-0.691-0.055-1.039-0.082-0.375-0.051-0.718-0.145-1.039-0.278-0.187-0.054-0.359-0.136-0.519-0.242-0.215-0.16-0.414-0.347-0.602-0.558-0.265-0.266-0.492-0.535-0.68-0.801-0.187-0.238-0.347-0.481-0.48-0.719-0.188-0.293-0.387-0.547-0.598-0.762l0.039 0.122zm13.797-0.563c-0.105 0.027-0.211 0.066-0.316 0.121 0.023 0.055 0.051 0.082 0.078 0.082 0.109 0.024 0.242 0.078 0.402 0.16 0.266 0 0.305-0.082 0.118-0.242-0.051-0.027-0.118-0.055-0.2-0.078l-0.039-0.043h-0.043zm-1.316 0.523h0.398c-0.082-0.16-0.16-0.226-0.242-0.203h-0.199l-0.078 0.043c0 0.106 0.039 0.16 0.121 0.16zm-13.203-0.082h0.121l-0.442-0.121 0.043 0.121h0.278zm-0.36-0.199 0.52 0.199c-0.051-0.078-0.117-0.144-0.199-0.199-0.078-0.027-0.188-0.027-0.321 0z" inkscape:connector-curvature="0"/>
      <path id="path160" style="fill-rule:evenodd;fill:#706361" d="m27.961 24.44 0.918-1.078c-0.156 0.133-0.25 0.172-0.277 0.117 0-0.106 0.05-0.227 0.16-0.359 0.293-0.293 0.504-0.602 0.636-0.918 0-0.051 0.008-0.098 0.024-0.141-0.07 0.199-0.195 0.395-0.383 0.578-0.238 0.215-0.48 0.414-0.719 0.602-0.187 0.132-0.359 0.265-0.519 0.398-0.403 0.242-0.602 0.563-0.602 0.961l0.762-0.16zm-11.02-2.281h0.059l-0.039-0.078-0.039-0.04v-0.043l-0.082-0.039h-0.121c0.027 0.055 0.082 0.106 0.16 0.161 0.023 0.023 0.043 0.035 0.062 0.039zm-1.98-0.758c0.344-0.16 0.734-0.199 1.16-0.121 0.266 0.027 0.531 0.039 0.801 0.039 0.316 0.109 0.637 0.242 0.957 0.402 0.215 0.16 0.402 0.371 0.562 0.641 0.161 0.238 0.305 0.504 0.438 0.797 0.16 0.375 0.375 0.668 0.641 0.882 0.187 0.161 0.386 0.266 0.601 0.321 0.32 0.078 0.691 0.117 1.117 0.117h2.121c0.375 0 0.746-0.012 1.121-0.039 0.098-0.024 0.188-0.039 0.258-0.039h-2.258c-0.402 0-0.812-0.016-1.242-0.039-0.316-0.028-0.613-0.094-0.879-0.203-0.265-0.051-0.48-0.172-0.64-0.36-0.266-0.293-0.504-0.613-0.719-0.961-0.215-0.32-0.453-0.652-0.719-1-0.082-0.105-0.16-0.211-0.242-0.32-0.293-0.211-0.641-0.344-1.039-0.398h-1.32c-0.215 0-0.414-0.012-0.602-0.039-0.051 0.027-0.078 0.054-0.078 0.078-0.027 0.054-0.039 0.136-0.039 0.242zm13.359 0.398-0.242 0.242-0.359 0.477-1.281 1.363-0.118 0.039c-0.109 0.266-0.308 0.414-0.601 0.442 0.242 0.051 0.453 0 0.64-0.16 0.321-0.27 0.641-0.563 0.961-0.883 0.239-0.211 0.492-0.453 0.758-0.719 0.215-0.215 0.442-0.426 0.684-0.641 0.238-0.265 0.504-0.507 0.797-0.718 0.32-0.243 0.695-0.293 1.121-0.16 0.347 0.16 0.691 0.32 1.039 0.48 0.054 0.051 0.133 0.105 0.242 0.16-0.27-0.32-0.563-0.562-0.883-0.723-0.156-0.105-0.344-0.183-0.558-0.238-0.321 0.028-0.653 0.133-1 0.321-0.293 0.105-0.547 0.226-0.758 0.359-0.16 0.133-0.309 0.254-0.442 0.359zm2.2 0.242h0.32l0.558-0.16c-0.16-0.082-0.293-0.136-0.398-0.16-0.027 0-0.055-0.027-0.082-0.082l-0.398-0.16h-0.239v0.082h-0.082c0.133 0.023 0.336 0.105 0.602 0.238l-0.039 0.082c-0.055 0.028-0.094 0.039-0.121 0.039-0.079-0.027-0.133-0.039-0.161-0.039h-0.121c0 0.078 0.055 0.133 0.161 0.16zm-0.961-0.363 0.281 0.481 0.082-0.118c-0.082 0-0.121-0.054-0.121-0.16l0.078-0.043-0.32-0.16zm-13.161 0.16c-0.16 0.028-0.277 0.094-0.359 0.203h0.082l0.078 0.04c0-0.133 0.028-0.172 0.082-0.122h0.16l-0.043-0.121z" inkscape:connector-curvature="0"/>
      <path id="path162" style="fill-rule:evenodd;fill:#d1b9b5" d="m19.762 24.799c0.16 0.106 0.332 0.188 0.519 0.242 0.321 0.133 0.664 0.227 1.039 0.278 0.348 0.027 0.692 0.054 1.039 0.082 0.403 0 0.813-0.016 1.243-0.039h1.957c0.429 0.023 0.75-0.028 0.961-0.16-0.082-0.082-0.172-0.149-0.282-0.204-0.078-0.05-0.16-0.093-0.238-0.117l0.438-0.043c-0.344 0-0.747 0.016-1.2 0.043-0.426 0.028-0.773 0.039-1.039 0.039h-3.16c-0.348-0.027-0.695-0.066-1.039-0.121h-0.238zm-4.121-2.918 0.718-0.121c0.133-0.027 0.243-0.027 0.321 0 0.082 0.055 0.148 0.121 0.199 0.199l0.043 0.039v0.043l0.039 0.04c0.398 0.078 0.437-0.055 0.117-0.403-0.051-0.051-0.105-0.094-0.156-0.117-0.481-0.16-0.934-0.133-1.363 0.078-0.051 0.055-0.079 0.094-0.079 0.121l0.161 0.121zm14.879-0.402 0.402 0.16c0.105-0.055 0.211-0.094 0.316-0.121-0.183-0.078-0.437-0.145-0.758-0.199-0.082 0.027-0.148 0.054-0.203 0.082-0.132 0.027-0.211 0.066-0.238 0.117l0.16 0.043 0.078-0.082v-0.078l0.243 0.078z" inkscape:connector-curvature="0"/>
      <path id="path164" style="fill-rule:evenodd;fill:#4a4140" d="m19 22.838c0.215 0.348 0.453 0.668 0.719 0.961 0.16 0.188 0.375 0.309 0.64 0.36 0.266 0.109 0.563 0.175 0.879 0.203 0.43 0.023 0.84 0.039 1.242 0.039h2.282c0.293-0.028 0.558-0.055 0.797-0.082 0.054 0.027 0.109 0.043 0.16 0.043 0.293-0.028 0.492-0.176 0.601-0.442-0.293 0.133-0.652 0.2-1.082 0.2-0.32 0.054-0.679 0.105-1.078 0.16h-2.883c-0.293 0.054-0.547-0.028-0.757-0.239-0.266-0.242-0.547-0.48-0.84-0.722-0.215-0.211-0.414-0.481-0.602-0.801-0.133-0.238-0.277-0.453-0.437-0.637l-0.442-0.679c-0.453-0.215-0.945-0.336-1.48-0.364l-1.641 0.243c0.188 0.027 0.387 0.039 0.602 0.039h1.32c0.398 0.054 0.746 0.187 1.039 0.398 0.293 0.16 0.547 0.441 0.762 0.844 0.078 0.183 0.144 0.344 0.199 0.476zm11.48-0.957c0.028 0 0.082 0.012 0.161 0.039 0.027 0 0.066-0.015 0.121-0.039h-0.282zm-1.601 1.481 0.961-1.203-0.281-0.481c-0.051 0-0.079 0.016-0.079 0.043 0 0.078-0.015 0.16-0.042 0.238-0.004 0.032-0.012 0.067-0.016 0.102-0.016 0.043-0.024 0.09-0.024 0.141-0.132 0.316-0.343 0.625-0.636 0.918-0.11 0.132-0.16 0.253-0.16 0.359 0.023 0.055 0.117 0.016 0.277-0.117zm3.082-1.641v-0.043c-0.027-0.371-0.242-0.68-0.641-0.918-0.082-0.054-0.175-0.105-0.281-0.16l-0.16-0.082h-0.199c-0.508-0.051-0.989 0.027-1.442 0.242l-0.918 1.039c0.133-0.105 0.282-0.226 0.442-0.359 0.211-0.133 0.465-0.254 0.758-0.359 0.347-0.188 0.679-0.293 1-0.321 0.214 0.055 0.402 0.133 0.558 0.238 0.32 0.161 0.613 0.403 0.883 0.723z" inkscape:connector-curvature="0"/>
      <path id="path166" style="fill-rule:evenodd;fill:#173f2a" d="m31 20.518 0.039 0.082c0.109 0.051 0.199 0.106 0.281 0.16 0.403 0.238 0.614 0.547 0.641 0.918v0.043l-0.238 0.16c0.265-0.027 0.558-0.082 0.879-0.16 0.078 0 0.16-0.027 0.238-0.082 0-0.055 0.015-0.105 0.039-0.16 0-0.027-0.012-0.066-0.039-0.117-0.028-0.082-0.051-0.16-0.078-0.242-0.188-0.321-0.508-0.493-0.961-0.52-0.293-0.027-0.563-0.055-0.801-0.082zm-14.281 0.32c0.535 0.028 1.027 0.149 1.48 0.364l0.442 0.679c0.347 0.028 0.664-0.082 0.961-0.32 0.023-0.027 0.039-0.066 0.039-0.121-0.375-0.293-0.813-0.465-1.321-0.52-0.558-0.105-1.093-0.132-1.601-0.082z" inkscape:connector-curvature="0"/>
    </g>
  </g>
<metadata><rdf:RDF><cc:Work><dc:format>image/svg+xml</dc:format><dc:type rdf:resource="http://purl.org/dc/dcmitype/StillImage"/><cc:license rdf:resource="http://creativecommons.org/licenses/publicdomain/"/><dc:publisher><cc:Agent rdf:about="http://openclipart.org/"><dc:title>Openclipart</dc:title></cc:Agent></dc:publisher></cc:Work><cc:License rdf:about="http://creativecommons.org/licenses/publicdomain/"><cc:permits rdf:resource="http://creativecommons.org/ns#Reproduction"/><cc:permits rdf:resource="http://creativecommons.org/ns#Distribution"/><cc:permits rdf:resource="http://creativecommons.org/ns#DerivativeWorks"/></cc:License></rdf:RDF></metadata></svg>
