<?xml version="1.0" encoding="UTF-8"?>
<svg width="32" height="32" version="1.1" viewBox="0 0 8.467 8.467" xmlns="http://www.w3.org/2000/svg">
 <defs>
  <clipPath id="p">
   <path d="m0 0h14033v9917h-14033z" clip-rule="evenodd"/>
  </clipPath>
  <clipPath id="o">
   <path d="m0 0h14033v9917h-14033z" clip-rule="evenodd"/>
  </clipPath>
  <clipPath id="n">
   <path d="m7661 5020c-21.56 53.55-47.06 110.5-80.44 179.5l-95.82 82.48c2.701 62.44-5.578 120.9-25.4 172.2-15.87 41.18-39.33 77.75-69.42 107.3-30.04 29.57-66.7 52.1-107.5 66.36-39.25 13.76-82.32 20.05-127.5 19.18-104.3-1.898-220.5-42.24-331.6-112.5-71.04-44.79-139.9-101.7-201.8-166.5-61.92-64.82-116.8-137.6-160.8-213.1-42.23-72.49-74.34-147.5-94.18-220.4-19.87-72.91-27.46-143.7-21.64-208.4 4.996-55.71 20.04-107 45.25-150.8 16.45-28.62 37.23-53.96 61.72-75.05 36.67-31.65 81.57-53.47 131.1-64.43 53.64-11.93 112.7-11.41 174 0.5426l211.2-181.8c6.315 1.241 12.63 2.481 18.95 3.722 6.163 1.25 12.33 2.499 18.49 3.748 6.021 1.26 12.04 2.52 18.06 3.78 11.85 2.537 23.5 5.097 34.95 7.68 11.36 2.597 22.55 5.224 33.57 7.879 38.39 9.334 74.48 19.17 109.5 29.86-136.7-41.76-246.9-3.179-288.8 101.2-41.99 104.4-9.484 258.8 85.27 404.9 94.76 146.2 237.4 261.9 374.1 303.7 67.19 20.52 129.3 21.97 180 4.201 50.7-17.77 88.26-54.13 108.9-105.4" clip-rule="evenodd"/>
  </clipPath>
  <clipPath id="m">
   <path d="m0 0h14033v9917h-14033z" clip-rule="evenodd"/>
  </clipPath>
  <clipPath id="l">
   <path d="m7279 5459 26.41 113.3c-159.1 55.77-390.4-29.11-586.7-215.3-196.3-186.2-319.5-437.5-312.4-637.5s143-309.7 344.9-278.3l-84.7 72.91-4.537 20.9-5.154 20.85-5.802 20.94-6.486 21.15-7.21 21.49-7.979 21.97-8.796 22.58-9.668 23.33-10.6 24.22-11.6 25.27-12.66 26.47-13.81 27.83-15.04 29.36-16.37 31.08 29.5 31.29 27.73 30.9 26.13 30.69 24.7 30.67 23.41 30.85 22.27 31.21 21.27 31.76 20.4 32.51 19.65 33.46 19.03 34.62 18.52 35.99 18.13 37.58 17.84 39.41 17.67 41.47 39.95 5.304 37.83 5.788 35.94 6.307 34.27 6.865 32.82 7.465 31.56 8.112 30.5 8.808 29.63 9.558 28.94 10.37 28.43 11.24 28.09 12.18 27.93 13.2 27.94 14.3z" clip-rule="evenodd"/>
  </clipPath>
  <clipPath id="k">
   <path d="m0 0h14033v9917h-14033z" clip-rule="evenodd"/>
  </clipPath>
  <clipPath id="j">
   <path d="m6837 5324 301.1-259.2c-3.377-6.628-6.754-13.26-10.13-19.88-3.352-6.475-6.704-12.95-10.06-19.42-3.332-6.332-6.664-12.66-9.996-19-6.639-12.47-13.26-24.74-19.87-36.83-6.605-11.98-13.21-23.8-19.82-35.46-23.13-40.61-46.42-78.98-70.68-116.4-48.61-74.89-101.1-146.3-165.7-225.4l-301.1 259.2 29.5 31.29 27.73 30.9 26.13 30.69 24.7 30.67 23.41 30.85 22.27 31.21 21.27 31.76 20.4 32.51 19.65 33.46 19.03 34.62 18.52 35.99 18.13 37.58 17.84 39.41z" clip-rule="evenodd"/>
  </clipPath>
  <clipPath id="i">
   <path d="m0 0h14033v9917h-14033z" clip-rule="evenodd"/>
  </clipPath>
  <clipPath id="h">
   <path d="m0 0h14033v9917h-14033z" clip-rule="evenodd"/>
  </clipPath>
  <clipPath id="g">
   <path d="m7282 5628c19.29-6.761 29.29-30.58 23.41-55.79-159.1 55.77-390.4-29.11-586.7-215.3-196.3-186.2-319.5-437.5-312.4-637.5s143-309.7 344.9-278.3l5.29-4.554c-61.29-11.95-120.3-12.48-174-0.5426-49.54 10.96-94.43 32.77-131.1 64.43-24.49 21.08-45.27 46.43-61.72 75.05-25.21 43.79-40.26 95.07-45.25 150.8-5.828 64.67 1.765 135.5 21.64 208.4 19.83 72.88 51.95 147.9 94.18 220.4 43.94 75.54 98.86 148.3 160.8 213.1 61.89 64.85 130.8 121.7 201.8 166.5 111.2 70.22 227.3 110.6 331.6 112.5 45.21 0.8755 88.28-5.415 127.5-19.18z" clip-rule="evenodd"/>
  </clipPath>
  <clipPath id="f">
   <path d="m0 0h14033v9917h-14033z" clip-rule="evenodd"/>
  </clipPath>
  <clipPath id="e">
   <path d="m7372 5122c-35.06-10.69-71.14-20.52-109.5-29.86-5.542-1.322-11.08-2.645-16.63-3.967-11.23-2.617-22.64-5.208-34.24-7.773-5.888-1.273-11.78-2.545-17.66-3.818-6.021-1.26-12.04-2.52-18.06-3.78-6.163-1.249-12.33-2.499-18.49-3.748-6.315-1.241-12.63-2.481-18.95-3.722-3.377-6.628-6.754-13.26-10.13-19.88-3.352-6.475-6.704-12.95-10.06-19.42-3.332-6.332-6.664-12.66-9.996-19-6.639-12.47-13.26-24.74-19.87-36.83-6.605-11.98-13.21-23.8-19.82-35.46-23.13-40.61-46.42-78.98-70.68-116.4 94.76 146.2 237.4 261.9 374.1 303.7" clip-rule="evenodd"/>
  </clipPath>
  <clipPath id="d">
   <path d="m0 0h14033v9917h-14033z" clip-rule="evenodd"/>
  </clipPath>
  <clipPath id="c">
   <path d="m0 0h14033v9917h-14033z" clip-rule="evenodd"/>
  </clipPath>
  <clipPath id="b">
   <path d="m0 0h14033v9917h-14033z" clip-rule="evenodd"/>
  </clipPath>
  <clipPath id="a">
   <path d="m6913 4413c41.99-104.4 152.1-143 288.8-101.2 136.7 41.76 279.4 157.5 374.1 303.7 24.26 37.47 47.55 75.83 70.68 116.4 3.303 5.858 6.606 11.72 9.908 17.57 6.602 11.86 13.21 23.9 19.83 36.12 3.317 6.2 6.634 12.4 9.951 18.6 3.332 6.332 6.664 12.66 9.996 19 3.352 6.475 6.704 12.95 10.06 19.42l10.13 19.88c-16.27 54.35-33.79 104.4-55.28 157.9-21.56 53.55-47.06 110.5-80.44 179.5l-28.45-74.12c50.7-17.77 88.26-54.13 108.9-105.4 41.99-104.4 9.484-258.8-85.27-404.9-48.61-74.89-101.1-146.3-165.7-225.4-72.28-32.05-138.3-56.88-208.4-78.32-35.06-10.69-71.14-20.52-109.5-29.86-11.02-2.655-22.22-5.282-33.57-7.879-11.46-2.583-23.11-5.143-34.95-7.68-6.021-1.26-12.04-2.52-18.06-3.78-6.163-1.25-12.33-2.499-18.49-3.748-6.315-1.241-12.63-2.481-18.95-3.722-16.27 54.35-33.79 104.4-55.28 157.9" clip-rule="evenodd"/>
  </clipPath>
 </defs>
 <g transform="matrix(.267 0 0 .267 -23.93 -35.37)" fill-opacity=".7272">
  <g transform="matrix(.02117 0 0 .02117 -43.41 43.62)">
   <g clip-path="url(#p)">
    <g fill-opacity=".7272">
     <path d="m7661 5020c-21.56 53.55-47.06 110.5-80.44 179.5l-95.82 82.48c2.701 62.44-5.578 120.9-25.4 172.2-15.87 41.18-39.33 77.75-69.42 107.3-30.04 29.57-66.7 52.1-107.5 66.36-39.25 13.76-82.32 20.05-127.5 19.18-104.3-1.898-220.5-42.24-331.6-112.5-71.04-44.79-139.9-101.7-201.8-166.5-61.92-64.82-116.8-137.6-160.8-213.1-42.23-72.49-74.34-147.5-94.18-220.4-19.87-72.91-27.46-143.7-21.64-208.4 4.996-55.71 20.04-107 45.25-150.8 16.45-28.62 37.23-53.96 61.72-75.05 36.67-31.65 81.57-53.47 131.1-64.43 53.64-11.93 112.7-11.41 174 0.5426l211.2-181.8c6.315 1.241 12.63 2.481 18.95 3.722 6.163 1.25 12.33 2.499 18.49 3.748 6.021 1.26 12.04 2.52 18.06 3.78 11.85 2.537 23.5 5.097 34.95 7.68 11.36 2.597 22.55 5.224 33.57 7.879 38.39 9.334 74.48 19.17 109.5 29.86-136.7-41.76-246.9-3.179-288.8 101.2-41.99 104.4-9.484 258.8 85.27 404.9 94.76 146.2 237.4 261.9 374.1 303.7 67.19 20.52 129.3 21.97 180 4.201 50.7-17.77 88.26-54.13 108.9-105.4" fill-opacity=".7272" fill-rule="evenodd"/>
    </g>
   </g>
   <g clip-path="url(#o)">
    <g clip-path="url(#n)" fill-opacity=".7272">
     <g transform="matrix(4.722 0 0 4.722 7013 4958)" fill-opacity=".7272">
      <path d="m0 0z" fill-opacity=".7272" stroke="#000" stroke-linecap="square" stroke-linejoin="bevel" stroke-miterlimit="10"/>
     </g>
    </g>
   </g>
   <g clip-path="url(#m)">
    <g clip-path="url(#l)" fill-opacity=".7272">
     <g transform="matrix(4.722 0 0 4.722 7013 4958)" fill-opacity=".7272">
      <path d="m0 0z" fill-opacity=".7272" stroke="#000" stroke-linecap="square" stroke-linejoin="bevel" stroke-miterlimit="10"/>
     </g>
    </g>
   </g>
   <g clip-path="url(#k)">
    <g clip-path="url(#j)" fill-opacity=".7272">
     <g transform="matrix(4.722 0 0 4.722 7013 4958)" fill-opacity=".7272">
      <path d="m0 0z" fill-opacity=".7272" stroke="#000" stroke-linecap="square" stroke-linejoin="bevel" stroke-miterlimit="10"/>
     </g>
    </g>
   </g>
  </g>
  <g transform="matrix(.03175 0 0 .03175 -120.5 -6.339)">
   <g clip-path="url(#i)" fill-opacity=".7272">
    <g fill-opacity=".7272">
     <path d="m7502 4967c81.61-70.25 51.22-239.4-67.89-377.7-119.1-138.4-281.8-193.6-363.4-123.3-81.61 70.25-51.22 239.4 67.89 377.7 119.1 138.4 281.8 193.6 363.4 123.3" fill-opacity=".7272" fill-rule="evenodd"/>
    </g>
   </g>
  </g>
  <g transform="matrix(.02117 0 0 .02117 -43.41 43.62)">
   <g clip-path="url(#h)">
    <g clip-path="url(#g)" fill-opacity=".7272">
     <g transform="matrix(4.722 0 0 4.722 7013 4958)" fill-opacity=".7272">
      <path d="m0 0z" fill-opacity=".7272" stroke="#000" stroke-linecap="square" stroke-linejoin="bevel" stroke-miterlimit="10"/>
     </g>
    </g>
   </g>
   <g clip-path="url(#f)">
    <g clip-path="url(#e)" fill-opacity=".7272">
     <g transform="matrix(4.722 0 0 4.722 7013 4958)" fill-opacity=".7272">
      <path d="m0 0z" fill-opacity=".7272" stroke="#000" stroke-linecap="square" stroke-linejoin="bevel" stroke-miterlimit="10"/>
     </g>
    </g>
   </g>
   <g clip-path="url(#d)">
    <g fill-opacity=".7272">
     <path d="m7576 4615c24.26 37.47 47.55 75.83 70.68 116.4 3.303 5.858 6.606 11.72 9.908 17.57 6.602 11.86 13.21 23.9 19.83 36.12 3.317 6.2 6.634 12.4 9.951 18.6 3.332 6.332 6.664 12.66 9.996 19 3.352 6.475 6.704 12.95 10.06 19.42l10.13 19.88c-16.27 54.35-33.79 104.4-55.28 157.9 41.99-104.4 9.484-258.8-85.27-404.9" fill-opacity=".7272" fill-rule="evenodd"/>
    </g>
   </g>
   <g clip-path="url(#c)">
    <g fill-opacity=".7272">
     <path d="m7202 4312c70.06 21.44 136.1 46.27 208.4 78.32 64.56 79.04 117.1 150.5 165.7 225.4-94.76-146.2-237.4-261.9-374.1-303.7" fill-opacity=".7272" fill-rule="evenodd"/>
    </g>
   </g>
   <g clip-path="url(#b)">
    <g clip-path="url(#a)" fill-opacity=".7272">
     <g transform="matrix(4.722 0 0 4.722 7013 4958)" fill-opacity=".7272">
      <path d="m0 0z" fill-opacity=".7272" stroke="#000" stroke-linecap="square" stroke-linejoin="bevel" stroke-miterlimit="10"/>
     </g>
    </g>
   </g>
  </g>
 </g>
 <g transform="matrix(.267 0 0 .267 -33.59 -34.53)" fill="none" stroke="#f6d900" stroke-linecap="round" stroke-linejoin="round">
  <g transform="matrix(.09996 0 0 .09996 141.3 145.3)" fill="none" stroke="#f6d900" stroke-linecap="round" stroke-linejoin="round" stroke-width="10">
   <path d="m-102-22.62 3.466-6.581 3.185-6.218 2.925-5.893 2.682-5.605 2.456-5.351 2.245-5.13 2.047-4.94 1.863-4.781 1.69-4.652 1.527-4.551 1.374-4.478 1.229-4.433 1.091-4.415 0.9608-4.425"/>
   <path d="m-37.14 77.42-3.742-8.782-3.778-8.345-3.838-7.959-3.922-7.621-4.029-7.331-4.161-7.086-4.32-6.885-4.504-6.726-4.716-6.609-4.958-6.532-5.23-6.495-5.534-6.499-5.872-6.542-6.247-6.626"/>
   <path d="m56.45 106-5.955-3.279-5.917-3.028-5.915-2.795-5.949-2.58-6.02-2.38-6.129-2.195-6.275-2.024-6.459-1.865-6.684-1.718-6.949-1.581-7.258-1.454-7.611-1.336-8.011-1.226-8.46-1.123"/>
   <path d="m149-20.34c-3.445 11.51-7.156 22.11-11.71 33.43"/>
   <path d="m137.3 13.09c-4.566 11.34-9.966 23.39-17.03 38.02"/>
   <path d="m56.45 106 63.77-54.89"/>
   <path d="m84.11-120.4c13.67 16.74 24.8 31.87 35.09 47.73"/>
   <path d="m119.2-72.65c5.137 7.934 10.07 16.06 14.97 24.66 0.6994 1.24 1.399 2.481 2.098 3.721 1.398 2.512 2.798 5.061 4.199 7.648 0.7024 1.313 1.405 2.626 2.107 3.938 0.7056 1.341 1.411 2.682 2.117 4.023 0.7098 1.371 1.42 2.742 2.129 4.113 0.7151 1.403 1.43 2.807 2.145 4.21"/>
   <path d="m-73.25-94.07 63.77-54.89"/>
   <path d="m-9.48-149c1.337 0.2627 2.675 0.5254 4.012 0.7882 1.305 0.2646 2.61 0.5291 3.915 0.7937 1.275 0.2668 2.55 0.5337 3.825 0.8005 2.508 0.5373 4.976 1.079 7.402 1.626 2.405 0.55 4.775 1.106 7.109 1.668 8.13 1.977 15.77 4.059 23.2 6.322"/>
   <path d="m39.98-137c14.84 4.541 28.83 9.798 44.13 16.59"/>
   <path d="m-102-22.62 63.77-54.89"/>
   <path d="m-38.22-77.51c7.067-14.63 12.47-26.68 17.03-38.02"/>
   <path d="m-21.19-115.5c4.55-11.33 8.26-21.92 11.71-33.43"/>
   <path d="m-37.14 77.42 63.77-54.89"/>
   <path d="m26.63 22.53c-0.7151-1.403-1.43-2.807-2.145-4.21-0.7098-1.371-1.42-2.742-2.129-4.113-0.7055-1.341-1.411-2.682-2.117-4.023-1.406-2.64-2.809-5.24-4.208-7.799-1.399-2.538-2.797-5.041-4.196-7.509-4.898-8.6-9.829-16.72-14.97-24.66"/>
   <path d="m-3.128-29.78c-10.29-15.86-21.42-30.99-35.09-47.73"/>
   <path d="m120.2 51.11c-15.31-6.787-29.3-12.04-44.13-16.59"/>
   <path d="m76.09 34.53c-7.423-2.263-15.07-4.346-23.2-6.322-1.174-0.28-2.347-0.5601-3.521-0.8401-2.379-0.5542-4.795-1.103-7.25-1.646-1.247-0.2695-2.494-0.539-3.74-0.8085-1.275-0.2668-2.55-0.5337-3.825-0.8005-1.305-0.2646-2.61-0.5291-3.915-0.7937-1.337-0.2627-2.675-0.5254-4.012-0.7882"/>
   <path d="m87.28-0.3164c2.614-0.9161 4.947-2.25 6.953-3.977"/>
   <path d="m94.23-4.294c14.61-12.58 9.168-42.85-12.15-67.62-21.32-24.77-50.45-34.65-65.06-22.08"/>
   <path d="m17.02-93.99c-13.45 11.58-10.03 38.42 7.946 62.39 17.98 23.97 44.79 37.43 62.31 31.29"/>
   <path d="m119.2-72.65c20.07 30.95 26.95 63.64 18.06 85.75"/>
   <path d="m137.3 13.09c-4.369 10.86-12.32 18.56-23.06 22.32"/>
   <path d="m39.98-137c28.96 8.844 59.16 33.36 79.22 64.31"/>
   <path d="m-21.19-115.5c8.892-22.11 32.21-30.28 61.16-21.43"/>
   <path d="m-3.128-29.78c-20.07-30.95-26.95-63.64-18.06-85.75"/>
   <path d="m76.09 34.53c-28.96-8.844-59.16-33.36-79.22-64.31"/>
   <path d="m114.2 35.42c-10.74 3.763-23.88 3.456-38.11-0.8897"/>
   <path d="m57.09 141.8c-8.312 2.915-17.43 4.247-27.01 4.061-22.09-0.4018-46.69-8.944-70.22-23.81-15.04-9.486-29.63-21.53-42.73-35.27-13.11-13.73-24.74-29.14-34.05-45.13-8.942-15.35-15.74-31.23-19.94-46.67-4.208-15.44-5.816-30.43-4.582-44.12 1.058-11.8 4.245-22.66 9.582-31.93 3.484-6.06 7.884-11.43 13.07-15.89 7.766-6.703 17.27-11.32 27.76-13.64 11.36-2.527 23.86-2.416 36.84 0.1149"/>
   <path d="m99.93 68.58c0.572 13.22-1.181 25.61-5.378 36.47-3.36 8.72-8.328 16.46-14.7 22.72-6.36 6.262-14.12 11.03-22.77 14.05"/>
   <path d="m62.05 130c-33.7 11.81-82.67-6.164-124.2-45.6-41.58-39.44-67.65-92.64-66.14-135 1.504-42.35 30.29-65.57 73.03-58.93"/>
   <path d="m98.81 69.54c0.1487 30.25-13.2 52.2-36.77 60.46"/>
  </g>
 </g>
</svg>
